<?xml version="1.0" encoding="UTF-8"?>
<svg id="S_logo" xmlns="http://www.w3.org/2000/svg" version="1.1" viewBox="0 0 194.4 180.72">
  <!-- Generator: Adobe Illustrator 30.2.1, SVG Export Plug-In . SVG Version: 2.1.1 Build 1)  -->
  <defs>
    <style>
      .st0 {
        fill: #fff;
      }
    </style>
  </defs>
  <path class="st0" d="M.12.36v17.8c9.27,3.51,17.69,8.01,25.84,11.76,3.03,1.5,6.04,3.04,9,4.62,2.97,1.58,5.9,3.19,8.79,4.84,2.5,1.42,4.96,2.88,7.41,4.35v-20.22c-2.46-1.35-4.94-2.68-7.45-3.98-2.91-1.51-5.84-2.98-8.81-4.42-2.96-1.44-5.96-2.85-8.98-4.22C17.37,7.06,8.78,3.46.12.36M194.29.36c-8.66,3.1-17.25,6.7-25.79,10.54-3.02,1.37-6.02,2.78-8.99,4.22-2.96,1.44-5.9,2.91-8.81,4.42-2.51,1.3-4.99,2.63-7.45,3.98v20.22c2.44-1.47,4.9-2.93,7.4-4.35,2.9-1.65,5.83-3.27,8.79-4.84,2.97-1.58,5.97-3.12,9-4.62,8.15-3.76,16.57-8.26,25.83-11.76V.36ZM59.51,28.68v59.91c14.03,10.83,26.68,22.74,37.7,35.56,8.72-10.14,18.46-19.7,29.09-28.62l.09,18.15c-10.83,9.61-20.61,19.91-29.18,30.83-10.77-13.71-23.42-26.47-37.7-38.09v24.74c15.36,14.91,28.09,31.44,37.7,49.2,9.61-17.76,22.33-34.29,37.69-49.2v-64.75c-6.07,4.2-11.76,8.4-17.31,12.6-7.15,5.63-13.96,11.52-20.38,17.66-6.42-6.14-13.23-12.03-20.38-17.66-2.88-2.18-5.81-4.36-8.8-6.54l.09-17.27c3,2.12,5.92,4.25,8.71,6.43,7.11,5.35,13.92,10.95,20.38,16.79,6.46-5.84,13.28-11.44,20.38-16.79,5.43-4.22,11.32-8.3,17.31-12.35v-20.6c-13.34,7.85-25.95,16.43-37.7,25.69-11.75-9.26-24.36-17.83-37.7-25.69M.12,33.16v18.76c8.18,3.91,17.34,8.99,25.95,13.95,3.06,1.73,6.07,3.5,9.04,5.32,2.97,1.82,5.88,3.68,8.76,5.58,2.47,1.63,4.89,3.3,7.29,4.99v-21.41c-2.43-1.52-4.88-3.02-7.36-4.49-2.89-1.71-5.82-3.38-8.79-5.01-2.97-1.63-5.97-3.23-9.01-4.78-7.7-4.44-17.18-8.48-25.87-12.92h0ZM194.28,33.16c-8.7,4.44-18.18,8.48-25.88,12.92-3.04,1.55-6.04,3.15-9.01,4.78-2.97,1.63-5.89,3.3-8.79,5.01-2.48,1.47-4.93,2.96-7.36,4.48v21.41c2.39-1.69,4.82-3.36,7.28-4.99,2.88-1.9,5.79-3.76,8.76-5.58,2.97-1.82,5.98-3.59,9.04-5.32,8.61-4.96,17.77-10.04,25.95-13.95v-18.76h0ZM194.28,67.95c-9.5,4.9-18.09,9.8-25.99,14.7-3.07,1.81-6.09,3.66-9.05,5.56-2.97,1.9-5.88,3.84-8.75,5.82-2.46,1.7-4.87,3.44-7.24,5.2v23.38c2.32-2.01,4.69-4,7.11-5.94,2.83-2.27,5.74-4.5,8.71-6.67,2.97-2.18,6-4.3,9.1-6.37,7.68-5.7,17.28-12.07,26.12-16.64v-19.03ZM.11,67.96v19.03c8.84,4.57,18.91,10.95,26.59,16.64,3.1,2.07,5.66,4.2,8.63,6.37,2.97,2.18,5.87,4.4,8.71,6.67,2.42,1.95,4.79,3.93,7.11,5.95v-23.38c-2.38-1.76-4.79-3.5-7.24-5.2-2.87-1.98-5.78-3.92-8.75-5.82-2.97-1.89-9.05-5.55-9.05-5.55,0,0-16.49-9.8-25.99-14.7"/>
</svg>